<?xml version="1.0" encoding="UTF-8"?>
<svg id="Layer_1" data-name="Layer 1" xmlns="http://www.w3.org/2000/svg" viewBox="0 0 458.31 453.54">
  <defs>
    <style>
      .cls-1 {
        fill: #231f20;
        stroke-width: 0px;
      }
    </style>
  </defs>
  <g>
    <path class="cls-1" d="m116.26,362.42c-1.78,5.33,1.1,11.1,6.44,12.88,1.07.35,2.16.52,3.22.52,4.27,0,8.23-2.69,9.66-6.96l26.78-77.19h-21.47l-24.62,70.75Z"/>
    <path class="cls-1" d="m231.42,271.41c5.62,0,10.18-4.56,10.18-10.18s-4.56-10.18-10.18-10.18h-56.48l19.05-57,12.74-38.15c1.78-5.33-1.1-11.09-6.43-12.88-5.34-1.78-11.1,1.1-12.88,6.44l-4.46,13.36-29.49,88.24h-41.46c-3.21-6.88-10.19-11.66-18.27-11.66-11.11,0-20.15,9.04-20.15,20.16s9.04,20.15,20.15,20.15c3.06,0,5.97-.69,8.57-1.92,3.13-1.47,5.83-3.74,7.83-6.53.58.11,1.19.16,1.8.16h119.48Zm-137.67-4.11c-4.29,0-7.76-3.48-7.76-7.76s3.47-7.77,7.76-7.77,7.76,3.48,7.76,7.77-3.47,7.76-7.76,7.76Z"/>
    <path class="cls-1" d="m147.77,131.03c6.16,0,11.69-2.78,15.39-7.15.82.2,1.67.32,2.56.32h148.4c20.76,0,42.02,14.26,48.42,32.48,7.77,22.08-11.1,43.38-32.82,52.19-21.2,8.61-46,8.61-67.88,8.61h-55.98c-1.19,0-2.33.2-3.39.58-3.96,1.39-6.79,5.16-6.79,9.6,0,5.63,4.56,10.18,10.18,10.18h55.98c23.75,0,50.66,0,75.54-10.1,30.43-12.35,56.32-43.83,44.37-77.82-9.24-26.28-38.31-46.09-67.63-46.09h-147.47c-2.86-7.65-10.24-13.11-18.88-13.11-11.12,0-20.16,9.04-20.16,20.15s9.04,20.15,20.16,20.15Zm0-27.91c4.28,0,7.76,3.47,7.76,7.76s-3.48,7.76-7.76,7.76-7.77-3.47-7.77-7.76,3.48-7.76,7.77-7.76Z"/>
  </g>
  <path class="cls-1" d="m256.32,292.23c-.63,0-1.07-.19-1.32-.57-.25-.38-.26-.87-.03-1.47l12.75-33.06c.23-.6.62-1.1,1.16-1.47.54-.38,1.13-.57,1.76-.57h8.94c2.85,0,5.28.45,7.3,1.36,2.02.9,3.57,2.19,4.65,3.85,1.08,1.67,1.65,3.62,1.71,5.88s-.44,4.74-1.49,7.47-2.48,5.23-4.28,7.49-3.88,4.23-6.25,5.9c-2.36,1.66-4.9,2.95-7.62,3.85-2.72.9-5.5,1.36-8.34,1.36h-8.94Zm3.55-3.66h6.8c2.98,0,5.85-.64,8.61-1.93,2.76-1.28,5.22-3.05,7.38-5.3,2.16-2.25,3.8-4.82,4.91-7.71,1.11-2.89,1.46-5.46,1.03-7.71-.42-2.25-1.52-4.01-3.3-5.28s-4.16-1.9-7.14-1.9h-6.8l-11.5,29.83Z"/>
  <path class="cls-1" d="m256.32,292.23c-.63,0-1.07-.19-1.32-.57-.25-.38-.26-.87-.03-1.47l12.75-33.06c.23-.6.62-1.1,1.16-1.47.54-.38,1.13-.57,1.76-.57h8.94c2.85,0,5.28.45,7.3,1.36,2.02.9,3.57,2.19,4.65,3.85,1.08,1.67,1.65,3.62,1.71,5.88s-.44,4.74-1.49,7.47-2.48,5.23-4.28,7.49-3.88,4.23-6.25,5.9c-2.36,1.66-4.9,2.95-7.62,3.85-2.72.9-5.5,1.36-8.34,1.36h-8.94Zm3.55-3.66h6.8c2.98,0,5.85-.64,8.61-1.93,2.76-1.28,5.22-3.05,7.38-5.3,2.16-2.25,3.8-4.82,4.91-7.71,1.11-2.89,1.46-5.46,1.03-7.71-.42-2.25-1.52-4.01-3.3-5.28s-4.16-1.9-7.14-1.9h-6.8l-11.5,29.83Z"/>
  <path class="cls-1" d="m306.76,261.5c-.79,0-1.37-.28-1.71-.83-.35-.55-.38-1.21-.08-1.97s.85-1.44,1.62-1.95c.77-.51,1.54-.76,2.3-.76s1.33.25,1.72.76c.38.51.42,1.16.12,1.95s-.83,1.42-1.61,1.97c-.78.56-1.56.83-2.36.83Zm-11.8,30.73c-.63,0-1.07-.18-1.33-.55-.26-.36-.26-.86-.02-1.5l8.45-21.93c.24-.63.64-1.13,1.17-1.5.54-.36,1.12-.55,1.75-.55s1.06.18,1.3.55c.24.36.24.86,0,1.5l-8.45,21.93c-.24.63-.63,1.13-1.15,1.5-.52.36-1.1.55-1.73.55Z"/>
  <path class="cls-1" d="m306.76,261.5c-.79,0-1.37-.28-1.71-.83-.35-.55-.38-1.21-.08-1.97s.85-1.44,1.62-1.95c.77-.51,1.54-.76,2.3-.76s1.33.25,1.72.76c.38.51.42,1.16.12,1.95s-.83,1.42-1.61,1.97c-.78.56-1.56.83-2.36.83Zm-11.8,30.73c-.63,0-1.07-.18-1.33-.55-.26-.36-.26-.86-.02-1.5l8.45-21.93c.24-.63.64-1.13,1.17-1.5.54-.36,1.12-.55,1.75-.55s1.06.18,1.3.55c.24.36.24.86,0,1.5l-8.45,21.93c-.24.63-.63,1.13-1.15,1.5-.52.36-1.1.55-1.73.55Z"/>
  <path class="cls-1" d="m318.36,292.47c-2.58,0-4.65-.56-6.2-1.69s-2.51-2.69-2.86-4.69c-.36-2-.04-4.28.95-6.85s2.48-4.9,4.45-6.9c1.96-2,4.19-3.56,6.7-4.69,2.5-1.13,5.1-1.69,7.78-1.69s4.79.56,6.43,1.69c1.63,1.13,2.66,2.69,3.06,4.69.4,2,.12,4.3-.85,6.9l-2.79.81c-.93,2.41-2.26,4.55-3.99,6.42-1.73,1.87-3.7,3.34-5.89,4.4s-4.46,1.59-6.77,1.59Zm-3.33,10.18c-2.52,0-4.6-.46-6.25-1.38-1.65-.92-2.83-2.2-3.56-3.85-.21-.41-.18-.87.08-1.36.25-.49.67-.88,1.24-1.16.62-.32,1.19-.43,1.72-.33.53.1.87.36,1.03.81.5,1.11,1.35,2,2.55,2.66,1.2.67,2.76,1,4.68,1,1.75,0,3.52-.4,5.28-1.21,1.77-.81,3.37-1.97,4.8-3.5,1.43-1.52,2.55-3.33,3.36-5.42l2.71-7.04,2.74-3.24,2.39.62-3.81,9.9c-.98,2.54-2.46,4.83-4.44,6.87-1.98,2.05-4.23,3.66-6.74,4.85s-5.11,1.78-7.79,1.78Zm5.32-13.8c1.89,0,3.71-.41,5.47-1.24,1.76-.82,3.33-1.96,4.71-3.4,1.38-1.44,2.44-3.1,3.16-4.97s.95-3.54.68-5-.96-2.6-2.08-3.42-2.63-1.24-4.51-1.24-3.72.41-5.49,1.24c-1.78.82-3.37,1.97-4.77,3.42-1.41,1.46-2.47,3.12-3.19,5s-.94,3.53-.65,4.97c.29,1.44,1,2.58,2.14,3.4,1.14.82,2.65,1.24,4.54,1.24Z"/>
  <path class="cls-1" d="m318.36,292.47c-2.58,0-4.65-.56-6.2-1.69s-2.51-2.69-2.86-4.69c-.36-2-.04-4.28.95-6.85s2.48-4.9,4.45-6.9c1.96-2,4.19-3.56,6.7-4.69,2.5-1.13,5.1-1.69,7.78-1.69s4.79.56,6.43,1.69c1.63,1.13,2.66,2.69,3.06,4.69.4,2,.12,4.3-.85,6.9l-2.79.81c-.93,2.41-2.26,4.55-3.99,6.42-1.73,1.87-3.7,3.34-5.89,4.4s-4.46,1.59-6.77,1.59Zm-3.33,10.18c-2.52,0-4.6-.46-6.25-1.38-1.65-.92-2.83-2.2-3.56-3.85-.21-.41-.18-.87.08-1.36.25-.49.67-.88,1.24-1.16.62-.32,1.19-.43,1.72-.33.53.1.87.36,1.03.81.5,1.11,1.35,2,2.55,2.66,1.2.67,2.76,1,4.68,1,1.75,0,3.52-.4,5.28-1.21,1.77-.81,3.37-1.97,4.8-3.5,1.43-1.52,2.55-3.33,3.36-5.42l2.71-7.04,2.74-3.24,2.39.62-3.81,9.9c-.98,2.54-2.46,4.83-4.44,6.87-1.98,2.05-4.23,3.66-6.74,4.85s-5.11,1.78-7.79,1.78Zm5.32-13.8c1.89,0,3.71-.41,5.47-1.24,1.76-.82,3.33-1.96,4.71-3.4,1.38-1.44,2.44-3.1,3.16-4.97s.95-3.54.68-5-.96-2.6-2.08-3.42-2.63-1.24-4.51-1.24-3.72.41-5.49,1.24c-1.78.82-3.37,1.97-4.77,3.42-1.41,1.46-2.47,3.12-3.19,5s-.94,3.53-.65,4.97c.29,1.44,1,2.58,2.14,3.4,1.14.82,2.65,1.24,4.54,1.24Z"/>
  <path class="cls-1" d="m354.88,261.5c-.79,0-1.37-.28-1.71-.83-.35-.55-.38-1.21-.08-1.97s.85-1.44,1.62-1.95c.77-.51,1.54-.76,2.3-.76s1.33.25,1.72.76c.38.51.42,1.16.12,1.95s-.83,1.42-1.61,1.97c-.78.56-1.56.83-2.36.83Zm-11.8,30.73c-.63,0-1.07-.18-1.33-.55-.26-.36-.26-.86-.02-1.5l8.45-21.93c.24-.63.64-1.13,1.17-1.5.54-.36,1.12-.55,1.75-.55s1.06.18,1.3.55c.24.36.24.86,0,1.5l-8.45,21.93c-.24.63-.63,1.13-1.15,1.5-.52.36-1.1.55-1.73.55Z"/>
  <path class="cls-1" d="m354.88,261.5c-.79,0-1.37-.28-1.71-.83-.35-.55-.38-1.21-.08-1.97s.85-1.44,1.62-1.95c.77-.51,1.54-.76,2.3-.76s1.33.25,1.72.76c.38.51.42,1.16.12,1.95s-.83,1.42-1.61,1.97c-.78.56-1.56.83-2.36.83Zm-11.8,30.73c-.63,0-1.07-.18-1.33-.55-.26-.36-.26-.86-.02-1.5l8.45-21.93c.24-.63.64-1.13,1.17-1.5.54-.36,1.12-.55,1.75-.55s1.06.18,1.3.55c.24.36.24.86,0,1.5l-8.45,21.93c-.24.63-.63,1.13-1.15,1.5-.52.36-1.1.55-1.73.55Z"/>
  <path class="cls-1" d="m157.35,342.21c-.65,0-1.09-.2-1.33-.59-.24-.39-.23-.91.04-1.53l14.62-34.35c.27-.63.69-1.14,1.27-1.53.58-.4,1.19-.59,1.84-.59h10.23c2.52,0,4.54.54,6.04,1.61,1.5,1.07,2.4,2.55,2.68,4.45.28,1.89-.11,4.09-1.17,6.6-1.02,2.41-2.48,4.54-4.36,6.4-1.88,1.86-4.03,3.33-6.45,4.4-2.42,1.07-4.89,1.61-7.41,1.61h-8.03l-4.86,11.42c-.27.63-.69,1.14-1.27,1.53-.58.4-1.19.59-1.84.59Zm9.69-17.6h8.03c1.67,0,3.31-.35,4.93-1.06,1.61-.71,3.07-1.7,4.36-2.97,1.29-1.27,2.28-2.71,2.97-4.32.73-1.71,1-3.21.82-4.5-.19-1.29-.79-2.3-1.8-3.04-1.01-.74-2.36-1.11-4.03-1.11h-8.03l-7.24,17Z"/>
  <path class="cls-1" d="m192.33,342.21c-1.43,0-2.54-.37-3.31-1.11-.78-.74-1.19-1.77-1.24-3.09-.05-1.32.29-2.83,1.01-4.55l11.83-27.78c.27-.63.68-1.13,1.23-1.51.55-.38,1.15-.57,1.8-.57.61,0,1.04.19,1.27.57.23.38.21.88-.05,1.51l-11.83,27.78c-.58,1.35-.77,2.46-.58,3.34.19.87.73,1.31,1.62,1.31h1.28c.54,0,.91.19,1.09.57.18.38.14.87-.11,1.46-.27.63-.73,1.13-1.38,1.51-.66.38-1.38.57-2.16.57h-.46Z"/>
  <path class="cls-1" d="m211.3,342.45c-2.59,0-4.65-.6-6.19-1.8s-2.46-2.84-2.76-4.92c-.31-2.08.09-4.42,1.2-7.02s2.75-4.99,4.88-7.07c2.13-2.08,4.52-3.72,7.18-4.92,2.66-1.2,5.34-1.8,8.03-1.8s4.8.6,6.42,1.8c1.62,1.2,2.61,2.84,2.97,4.92.36,2.08,0,4.43-1.09,7.07l-2.1.84c-1.04,2.44-2.54,4.63-4.51,6.57-1.97,1.94-4.18,3.48-6.62,4.62-2.44,1.14-4.91,1.71-7.4,1.71Zm2.21-3.76c1.91,0,3.79-.44,5.65-1.31,1.85-.87,3.54-2.07,5.05-3.58,1.51-1.52,2.67-3.21,3.47-5.09s1.11-3.62.87-5.12c-.23-1.5-.9-2.69-2-3.58s-2.61-1.33-4.52-1.33-3.76.45-5.66,1.33c-1.9.89-3.61,2.08-5.13,3.58-1.52,1.5-2.69,3.2-3.51,5.12s-1.08,3.58-.84,5.09.93,2.71,2.08,3.58c1.14.87,2.66,1.31,4.53,1.31Zm10.47,3.51c-.61,0-1.05-.19-1.32-.57-.27-.38-.26-.88,0-1.51l3.47-8.16,2.8-4.3,2.98,1.04-4.86,11.42c-.27.63-.69,1.13-1.26,1.51-.57.38-1.18.57-1.83.57Z"/>
  <path class="cls-1" d="m253.63,353.77c-.61,0-1.05-.19-1.32-.57-.27-.38-.26-.9.02-1.56l6.02-14.14c-1.76,1.48-3.72,2.68-5.9,3.58-2.18.91-4.37,1.36-6.59,1.36-2.59,0-4.65-.6-6.19-1.8s-2.46-2.84-2.76-4.92c-.31-2.08.09-4.42,1.2-7.02s2.75-4.99,4.88-7.07c2.13-2.08,4.52-3.72,7.18-4.92,2.66-1.2,5.34-1.8,8.03-1.8s4.79.6,6.39,1.8c1.6,1.2,2.59,2.83,2.95,4.89.37,2.06.04,4.37-.99,6.94l-9.83,23.08c-.28.66-.71,1.18-1.28,1.56-.57.38-1.18.57-1.83.57Zm-5.55-15.08c1.91,0,3.79-.44,5.65-1.31,1.85-.87,3.54-2.07,5.05-3.58,1.51-1.52,2.67-3.21,3.47-5.09s1.11-3.62.87-5.12c-.23-1.5-.9-2.69-2-3.58s-2.61-1.33-4.52-1.33-3.76.45-5.66,1.33c-1.9.89-3.61,2.08-5.13,3.58-1.52,1.5-2.69,3.2-3.51,5.12s-1.08,3.58-.84,5.09.93,2.71,2.08,3.58c1.14.87,2.66,1.31,4.53,1.31Z"/>
  <path class="cls-1" d="m281.9,342.5c-2.42,0-4.37-.49-5.85-1.46-1.48-.97-2.36-2.4-2.65-4.28-.29-1.88.14-4.18,1.31-6.92l5.37-12.6c.25-.59.67-1.09,1.25-1.48.58-.39,1.17-.59,1.79-.59s1.04.2,1.28.59c.24.4.23.89-.02,1.48l-5.37,12.6c-.86,2.01-1.16,3.65-.92,4.92.24,1.27.89,2.22,1.95,2.87,1.06.64,2.42.96,4.09.96s3.18-.3,4.74-.91c1.55-.61,2.93-1.43,4.12-2.47s2.08-2.23,2.65-3.58h2.91c-.95,2.08-2.3,3.93-4.05,5.56-1.75,1.63-3.73,2.92-5.95,3.88s-4.43,1.43-6.64,1.43Zm11.38-.3c-.65,0-1.09-.19-1.32-.57-.23-.38-.21-.9.07-1.56l9.72-22.84c.27-.63.68-1.13,1.23-1.51.55-.38,1.15-.57,1.8-.57s1.1.19,1.34.57c.25.38.24.88-.03,1.51l-9.72,22.84c-.28.66-.71,1.18-1.28,1.56-.57.38-1.18.57-1.83.57Z"/>
  <path class="cls-1" d="m317.41,342.45c-2.8,0-5.02-.59-6.67-1.75-1.65-1.17-2.65-2.79-2.99-4.87s.05-4.45,1.19-7.12,2.74-5.08,4.78-7.14c2.04-2.06,4.32-3.68,6.85-4.87,2.53-1.19,5.13-1.78,7.79-1.78s4.61.57,6.05,1.71c1.44,1.14,2.25,2.71,2.44,4.72.18,2.01-.27,4.3-1.36,6.87-.24.56-.62,1.01-1.14,1.36-.52.35-1.07.52-1.65.52h-21.38l1.45-3.41h21.63l-2.83,1.48c.8-1.81,1.16-3.44,1.06-4.89-.1-1.45-.64-2.59-1.62-3.41-.98-.82-2.39-1.24-4.23-1.24-1.94,0-3.82.43-5.64,1.29-1.81.86-3.43,2.05-4.85,3.58-1.42,1.53-2.54,3.27-3.37,5.21s-1.12,3.67-.88,5.19c.24,1.52.95,2.7,2.14,3.56,1.19.86,2.79,1.29,4.8,1.29,1.16,0,2.43-.2,3.81-.59,1.38-.39,2.55-.89,3.52-1.48.53-.3,1.07-.45,1.61-.47.54-.02.91.12,1.12.42.33.43.4.89.2,1.38-.19.49-.61.92-1.24,1.29-1.52.92-3.27,1.68-5.26,2.27-1.99.59-3.77.89-5.34.89Z"/>
</svg>