<svg width="181" height="32" viewBox="0 0 181 32" fill="none" xmlns="http://www.w3.org/2000/svg">
<path d="M18.6448 0L9.35952 15.9177L0.0742188 31.8353L18.503 31.9177L36.9273 32L27.7883 16L18.6448 0Z" fill="#333336"/>
<path d="M92.9277 9.34904C96.5947 9.34904 99.5787 12.3331 99.5787 16C99.5787 19.6669 96.5947 22.651 92.9277 22.651C89.2608 22.651 86.2768 19.6669 86.2768 16C86.2768 12.3331 89.2608 9.34904 92.9277 9.34904ZM92.9277 0C84.0919 0 76.9277 7.16278 76.9277 16C76.9277 24.8372 84.0905 32 92.9277 32C101.765 32 108.928 24.8372 108.928 16C108.928 7.16278 101.765 0 92.9277 0Z" fill="#333336"/>
<path d="M180.928 0H148.928V32H180.928V0Z" fill="#333336"/>
</svg>
