<svg width="390" height="175" viewBox="0 0 390 175" fill="none" xmlns="http://www.w3.org/2000/svg">
<path fill-rule="evenodd" clip-rule="evenodd" d="M373.946 23.3366C377.627 23.3366 380.622 20.3489 380.622 16.6543C380.622 12.9598 377.637 9.97211 373.946 9.97211C370.255 9.97211 367.27 12.9598 367.27 16.6543C367.27 20.3489 370.255 23.3366 373.946 23.3366ZM373.946 32.7237C382.806 32.7237 390 25.5325 390 16.6543C390 7.77611 382.816 0.584961 373.946 0.584961C365.076 0.584961 357.892 7.77611 357.892 16.6543C357.892 25.5325 365.076 32.7237 373.946 32.7237Z" fill="white"/>
<path d="M374.03 102.939C374.03 91.9211 371.544 81.4784 367.1 72.1478C367.081 72.2326 367.062 72.3174 367.044 72.4022C367.044 72.3928 367.044 72.3834 367.034 72.374C366.996 72.6002 366.949 72.8075 366.902 73.0243C366.827 73.3541 366.761 73.684 366.676 73.995C366.648 74.0987 366.62 74.2024 366.592 74.3061C365.838 76.8508 364.605 79.0845 362.91 80.96C362.872 81.0071 362.825 81.0543 362.788 81.1014C362.383 81.5443 361.949 81.9685 361.488 82.3643C361.432 82.4114 361.375 82.4585 361.319 82.5057C360.857 82.9015 360.368 83.2785 359.859 83.6367C359.85 83.6367 359.84 83.6555 359.831 83.6555C359.275 84.0419 358.692 84.4001 358.07 84.73C357.863 84.8431 357.656 84.9373 357.458 85.041C355.424 86.0306 352.289 87.2181 348.325 87.3029C348.249 87.3029 348.183 87.3029 348.108 87.3029C347.939 87.3029 347.76 87.3029 347.59 87.2935C347.261 87.2935 346.922 87.2747 346.583 87.2558C346.394 87.2464 346.197 87.2275 345.999 87.2087C345.726 87.1804 345.453 87.1521 345.17 87.1144C344.869 87.0767 344.577 87.039 344.266 86.9825C344.182 86.9731 344.097 86.9542 344.012 86.9354C343.118 86.7657 342.195 86.5489 341.244 86.2473C342.694 90.1304 343.871 93.3254 344.304 97.3498C345.415 108.876 342.524 118.367 337.12 126.567C329.455 137.688 316.649 144.992 302.158 144.992C300.859 144.992 299.559 144.936 298.26 144.813C296.979 144.7 295.708 144.521 294.446 144.286C293.204 144.059 291.961 143.767 290.746 143.428C289.541 143.089 288.345 142.702 287.177 142.259C286.019 141.816 284.87 141.326 283.75 140.789C282.639 140.252 281.547 139.667 280.483 139.036C279.428 138.405 278.392 137.726 277.394 137.01C276.396 136.293 275.436 135.53 274.503 134.729C273.571 133.928 272.677 133.089 271.82 132.212C270.963 131.336 270.144 130.422 269.362 129.47C268.581 128.518 267.837 127.538 267.15 126.529C266.453 125.511 265.794 124.465 265.191 123.391C264.579 122.316 264.014 121.214 263.506 120.083C262.988 118.952 262.526 117.792 262.103 116.614C261.688 115.427 261.321 114.23 261.01 113.005C260.7 111.77 260.436 110.526 260.238 109.272C260.031 108 259.89 106.718 259.796 105.427C259.73 104.532 259.739 103.646 259.711 102.75C259.673 101.845 259.645 100.931 259.617 100.026C259.589 99.1217 259.589 98.2075 259.513 97.3121C259.513 97.2367 259.504 97.1708 259.494 97.0954C259.447 96.445 259.391 95.7947 259.325 95.1538C259.193 93.8721 259.033 92.5903 258.826 91.3085C258.628 90.0456 258.393 88.7826 258.129 87.5291C257.865 86.2851 257.574 85.0504 257.244 83.8252C256.914 82.6094 256.557 81.3936 256.171 80.1966C255.785 78.9996 255.361 77.8215 254.909 76.6528C254.457 75.4842 253.977 74.3344 253.468 73.1939C252.96 72.063 252.423 70.9414 251.858 69.8293C251.293 68.7266 250.7 67.6427 250.078 66.5682C249.457 65.5032 248.817 64.4477 248.139 63.4109C247.47 62.3742 246.773 61.3657 246.048 60.3667C245.323 59.3677 244.58 58.3969 243.807 57.4356C243.035 56.4837 242.235 55.5412 241.416 54.627C240.597 53.7127 239.749 52.8174 238.892 51.9409C238.035 51.0644 237.141 50.2161 236.228 49.3867C235.324 48.5574 234.391 47.7562 233.44 46.974C232.489 46.1917 231.52 45.4377 230.531 44.7026C229.542 43.9674 228.535 43.2606 227.499 42.582C226.473 41.9034 225.418 41.2437 224.363 40.6216C223.299 39.9902 222.217 39.3964 221.115 38.8215C220.013 38.2466 218.902 37.6999 217.772 37.1815C216.642 36.6632 215.494 36.1731 214.335 35.7207C213.168 35.2589 211.991 34.8348 210.804 34.4295C209.609 34.0242 208.403 33.6566 207.189 33.3268C205.965 32.9875 204.741 32.6859 203.498 32.4126C202.245 32.1392 200.993 31.8942 199.731 31.6869C198.46 31.4795 197.18 31.3004 195.899 31.1591C194.6 31.0177 193.31 30.914 192.01 30.8386C190.692 30.7632 189.374 30.7349 188.046 30.7349C187.961 30.7349 187.886 30.7349 187.801 30.7349L218.3 0.5H185.749L160.438 25.5984L135.034 54.0426C135.025 54.1086 135.006 54.184 134.987 54.25C123.434 66.9829 116.391 83.9006 116.391 102.458C116.391 105.86 116.635 109.263 117.116 112.628C117.36 114.324 117.662 116.011 118.029 117.689C118.679 120.686 119.573 123.636 120.628 126.51C121.155 127.952 121.729 129.385 122.342 130.789C122.643 131.496 122.963 132.194 123.283 132.891C123.481 133.315 124.131 134.201 124.046 134.663C124.987 129.969 127.737 125.662 131.616 122.872C133.17 121.751 134.893 120.884 136.701 120.252C138.565 119.602 140.524 119.187 142.501 119.131C144.497 119.074 146.371 119.508 148.292 120.007C148.414 120.035 148.546 120.073 148.678 120.073C148.951 120.073 149.224 119.838 149.177 119.536C146.88 114.305 145.59 108.528 145.59 102.458C145.59 83.6555 157.849 67.6804 174.779 62.0914C175.052 62.016 175.325 61.9312 175.579 61.8275C179.525 60.6117 183.715 59.952 188.055 59.952C188.715 59.952 189.364 59.9709 190.014 59.9991C190.664 60.0274 191.313 60.0745 191.963 60.1311C192.603 60.1876 193.244 60.263 193.884 60.3478C194.515 60.4327 195.155 60.5363 195.786 60.6589C196.407 60.772 197.038 60.9039 197.65 61.0453C198.262 61.1867 198.874 61.3469 199.486 61.5165C200.089 61.6862 200.692 61.8747 201.294 62.0632C201.888 62.2611 202.481 62.4684 203.065 62.6946C203.648 62.9208 204.223 63.147 204.797 63.4015C205.371 63.6465 205.936 63.901 206.492 64.1743C207.048 64.4477 207.603 64.7304 208.149 65.0226C208.695 65.3148 209.232 65.6258 209.759 65.9368C210.287 66.2572 210.814 66.5777 211.322 66.917C211.84 67.2563 212.339 67.605 212.838 67.9631C213.337 68.3213 213.827 68.6983 214.307 69.0753C214.787 69.4522 215.268 69.8481 215.729 70.2534C216.19 70.6492 216.652 71.0639 217.094 71.488C217.537 71.9121 217.979 72.3363 218.413 72.7792C218.836 73.2222 219.26 73.6652 219.674 74.127C220.089 74.5888 220.484 75.0506 220.87 75.5219C221.256 75.9931 221.642 76.4832 222.009 76.9733C222.377 77.4634 222.734 77.9629 223.083 78.4718C223.431 78.9808 223.77 79.4992 224.09 80.0175C224.42 80.5453 224.731 81.0731 225.032 81.6103C225.333 82.1475 225.625 82.6942 225.908 83.2502C226.19 83.8063 226.454 84.3624 226.717 84.9279C226.972 85.4934 227.217 86.0683 227.452 86.6432C227.687 87.2181 227.904 87.8119 228.111 88.3962C228.318 88.99 228.516 89.5838 228.695 90.187C228.874 90.7901 229.043 91.4027 229.203 92.0154C229.354 92.628 229.505 93.25 229.627 93.872C229.759 94.4941 229.872 95.1256 229.966 95.757C230.07 96.3885 230.154 97.0294 230.22 97.6703C230.296 98.3112 230.352 98.9615 230.39 99.6118C230.437 100.262 230.465 100.922 230.474 101.572C230.474 102.006 230.474 102.43 230.474 102.863C230.484 103.325 230.512 103.787 230.521 104.258C230.521 104.334 230.521 104.409 230.521 104.484C231.604 143.155 263.233 174.172 302.13 174.172C331.95 174.172 357.486 155.925 368.277 129.998H368.296C371.281 123.485 372.985 116.152 373.512 107.896C373.738 107.359 373.87 106.794 373.908 106.209C373.955 105.116 373.992 104.013 373.992 102.901L374.03 102.939Z" fill="white"/>
<path d="M55.9215 30.7825C63.2848 30.7825 69.2639 36.7767 69.2639 44.1376C69.2639 51.4984 63.8498 56.8988 56.9855 57.4455C56.6277 57.4455 56.2793 57.4172 55.9215 57.4172C55.5637 57.4172 55.2153 57.436 54.8575 57.4455H45.1026V87.6615H54.4809C54.9611 87.6804 55.4413 87.6992 55.9309 87.6992C56.4206 87.6992 56.9008 87.6804 57.381 87.6615C68.1152 88.2742 77.0698 95.5879 80.1394 105.484C80.1865 105.55 80.2335 105.606 80.2712 105.672C83.0677 110.432 88.0582 113.929 93.5383 114.711C97.8979 115.333 102.436 114.23 106.127 111.846C108.18 110.526 109.781 108.839 111.09 106.86C111.005 106.068 110.901 105.277 110.779 104.494C108.641 90.621 101.382 78.4252 90.9771 69.9334C96.2972 62.7045 99.4515 53.7886 99.4515 44.147C99.4515 20.1325 79.9322 0.594727 55.9404 0.594727C31.9485 0.594727 12.448 20.1136 12.4292 44.1187H42.5979C42.6168 36.7673 48.5959 30.792 55.9404 30.792L55.9215 30.7825Z" fill="white"/>
<path d="M81.175 115.163C80.9208 118.15 80.1204 121.053 79.1035 123.862C78.9622 124.258 78.8022 124.635 78.6327 125.021C78.5197 125.295 77.983 126.077 78.0207 126.341C76.7966 128.697 75.1959 130.836 73.3221 132.693C73.1244 132.872 72.9454 133.051 72.776 133.23C68.2469 137.453 62.183 140.044 55.5259 140.044C45.3096 140.044 36.1385 133.956 32.1649 124.541C30.8467 121.421 30.1782 118.103 30.1782 114.673C30.1782 111.242 30.8749 107.924 32.1273 104.918H0.866267C0.301309 108.085 0 111.346 0 114.673C0 122.165 1.46889 129.451 4.36901 136.303C13.0788 156.915 33.1536 170.232 55.5165 170.232C75.4501 170.232 92.9544 159.658 102.756 143.814C102.756 143.814 110.016 132.712 110.977 119.894C110.977 119.875 110.977 119.847 110.977 119.828C111.184 118.15 111.325 116.463 111.381 114.748C107.059 118.386 101.419 120.431 95.7698 120.346C90.8829 120.271 85.1768 118.452 81.1468 115.172L81.175 115.163Z" fill="white"/>
<path d="M226.746 119.791C220.127 134.663 205.23 145.059 187.943 145.059C177.152 145.059 167.303 140.997 159.808 134.333C157.915 132.656 156.267 130.724 154.563 128.857C152.934 127.057 150.957 125.917 148.716 124.974C144.592 123.24 139.658 123.382 135.712 125.53C132.577 127.236 130.157 130.158 128.914 133.494C128.038 135.841 127.897 138.226 128.255 140.695C128.34 141.308 128.406 141.958 128.49 142.599C141.362 161.712 163.188 174.276 187.952 174.276C209.185 174.276 228.262 165.021 241.378 150.327C240.87 149.771 240.352 149.196 239.834 148.555C231.991 138.999 228.394 127.642 226.755 119.781L226.746 119.791Z" fill="white"/>
<path d="M362.665 64.2592C362.618 64.1556 362.571 64.0519 362.515 63.9482C362.223 63.4298 361.865 62.9492 361.535 62.4591C361.526 62.4402 361.507 62.4214 361.498 62.4025C360.848 61.4506 360.17 60.5082 359.473 59.5939C358.776 58.6797 358.061 57.7749 357.317 56.889C356.667 56.1067 355.923 55.2773 355.227 54.5045C354.784 54.005 354.671 53.8165 354.04 54.0804C353.146 54.448 352.487 55.1642 351.724 55.7392C348.673 58.0577 345.82 60.6401 343.184 63.411C343.221 63.3639 343.259 63.3262 343.287 63.279C345.745 60.1406 347.835 56.6628 350.142 53.4961C350.688 52.7609 351.564 51.9221 351.168 50.9325C350.961 50.4047 350.528 49.9994 350.104 49.6319C348.88 48.5668 347.619 47.549 346.319 46.5971C343.184 51.0362 340.058 55.4753 336.931 59.9144C336.159 60.9982 335.368 62.1198 334.286 62.8926C333.193 63.6749 331.743 64.0707 330.5 63.5807C328.815 62.9209 328.071 60.8097 328.363 59.019C328.664 57.2189 329.747 55.6732 330.792 54.1841C333.692 50.0937 336.592 45.9939 339.493 41.9035C337.722 40.6782 335.849 39.6038 333.89 38.699C333.711 38.6048 333.504 38.52 333.306 38.5482C333.005 38.5859 332.798 38.8592 332.619 39.1043C330.538 42.0354 328.457 44.9666 326.376 47.9071C325.839 48.6611 325.303 49.4245 324.785 50.1974C325.425 48.0391 325.66 45.7865 325.764 43.5434C325.886 40.8385 326.348 37.7377 324.069 35.749C322.224 34.1374 319.766 33.5531 317.45 32.9781C314.747 32.309 311.998 31.9697 309.211 31.932C307.026 31.9037 304.512 31.8848 302.77 33.4117C301.028 34.9291 300.84 37.3701 300.36 39.4813C299.362 43.8827 298.458 48.5197 299.39 53.0531C299.239 52.2708 298.797 50.5838 298.439 50.0277C297.045 47.8883 295.228 47.3416 293.326 47.106L293.279 46.9646C294.964 45.5697 296.518 42.4218 295.426 39.0572C294.569 36.4182 293.091 34.7783 291.057 33.9772C289.183 33.2515 286.923 33.1572 284.174 33.7604C284.117 33.7698 284.061 33.7887 283.995 33.8075C283.326 33.9583 282.62 34.1468 281.886 34.3919L281.349 34.5615C280.699 34.7783 280.068 34.9856 279.456 35.1836C279.259 35.2495 279.061 35.3155 278.863 35.3815C276.839 36.0506 275.125 36.6727 273.91 37.3136C274.701 45.1645 276.933 52.7515 280.379 60.1123C276.98 58.331 275.003 54.9663 273.101 50.4707C270.153 52.0823 268.091 53.5526 265.464 56.1162C266.632 57.7278 267.809 59.33 268.986 60.9323C269.447 59.7542 270.295 58.7363 271.528 58.331C273.016 57.8315 274.344 60.6872 274.758 61.7051C274.956 62.1858 274.993 62.6947 274.664 63.1377C274.438 63.4487 274.099 63.6749 273.779 63.8823C272.206 64.9096 270.813 66.0123 268.892 66.229C267.413 66.3987 265.916 66.0971 264.589 65.4468C261.849 64.1085 259.815 61.3564 259.363 58.331C259.259 57.6618 259.25 56.9832 259.363 56.3141C259.655 54.4008 260.794 52.6761 262.244 51.432C263.854 50.0466 265.728 49.0664 267.649 48.1899C267.988 48.0391 270.85 46.6065 271.029 47.0117C270.577 45.9562 270.219 44.8723 269.927 43.7602C269.786 43.2324 269.673 42.6952 269.56 42.158C269.466 41.6961 269.504 40.7631 269.259 40.3861C269.005 39.9808 268.797 40.1976 268.355 40.4238C267.941 40.6405 267.536 40.8762 267.131 41.1118C261.397 44.4576 256.105 48.0014 251.416 52.7326C249.721 54.448 249.419 57.1058 250.719 59.1415C252.15 61.3847 253.883 64.3252 255.549 67.7747C255.643 67.9255 255.709 68.0669 255.775 68.2271C256.99 70.7435 258.167 73.5239 259.184 76.4927C260.521 80.3946 265.766 81.2334 268.214 77.9253C270.991 74.1553 274.381 70.8566 278.232 68.1894C279.748 67.1338 281.34 66.1725 282.997 65.3148L283.025 65.3902C283.807 64.9661 284.597 64.5608 285.398 64.1838C285.464 64.1556 285.53 64.1273 285.596 64.099C286.791 63.5429 288.006 63.0717 289.24 62.7041C289.305 62.6853 289.371 62.6664 289.437 62.6476C288.298 59.151 287.168 55.6543 286.029 52.1577C289.014 51.1775 290.407 51.6865 292.027 54.5139C293.835 57.5959 295.633 60.4139 296.264 61.0642H296.377L303.138 60.6966C303.138 60.6966 303.194 60.3668 303.015 59.2923C304.211 60.1594 305.717 60.7438 307.582 60.9417C307.582 60.9417 311.263 61.5637 311.273 61.5637C312.375 61.7522 313.956 61.9219 315.425 62.0538C317.638 62.2612 319.747 61.0831 320.717 59.0756C320.971 58.5572 321.216 58.0765 321.433 57.7278C321.15 59.4903 321.235 61.2998 321.894 62.9492C322.516 64.5137 323.589 65.8238 324.879 66.8888C325.651 67.5485 326.499 68.1046 327.374 68.5758C327.506 68.6606 327.638 68.7361 327.77 68.802C329.634 69.7728 331.724 70.4702 333.815 70.2629C334.888 70.1592 335.914 69.8105 336.865 69.311C335.566 70.7058 334.342 72.1573 333.174 73.6653C334.954 75.5597 336.574 77.6048 337.995 79.8008C339.549 77.652 341.272 75.6256 343.118 73.7124C343.118 73.7124 344.944 75.7293 344.954 75.7387C348.042 79.1505 353.278 80.5171 357.477 78.3777C358.211 78.0007 358.899 77.52 359.511 76.964C360.123 76.4079 360.66 75.767 361.121 75.0884C361.582 74.4098 361.978 73.6464 362.298 72.8735C362.618 72.1007 362.854 71.2713 363.014 70.4419C363.174 69.6126 363.258 68.7737 363.258 67.9255C363.258 67.0773 363.183 66.2667 363.023 65.4562C362.938 65.0509 362.844 64.6268 362.675 64.2404L362.665 64.2592ZM286.048 46.2955C284.136 47.0212 282.018 46.4557 281.707 43.1004C281.518 41.1024 283.034 39.9714 284.861 39.5473C285.878 39.3116 287.017 39.4436 287.865 40.0562C290.699 42.1202 288.562 45.3341 286.048 46.286V46.2955ZM317.13 47.728C316.216 52.4687 314.173 52.8646 311.009 52.2614C307.893 51.6676 306.075 50.8005 307.017 45.8525C307.949 41.0175 309.964 40.4992 313.081 40.8385C316.565 41.2155 317.986 43.1947 317.12 47.7186L317.13 47.728ZM356.978 69.0659C356.46 71.4598 353.682 73.0998 351.46 71.13C349.916 69.7634 348.127 68.5381 349.577 66.6437C350.415 65.5504 351.865 63.6278 353.353 63.5618C355.208 63.477 356.479 65.7201 356.912 67.2469C357.091 67.8689 357.1 68.491 356.969 69.0659H356.978Z" fill="white"/>
</svg>
