<svg width="24" height="20" viewBox="0 0 24 20" fill="none" xmlns="http://www.w3.org/2000/svg">
<path fill-rule="evenodd" clip-rule="evenodd" d="M1.74609 0.628906H22.2539C23.2148 0.628906 24 1.41406 24 2.375C24 3.33594 23.2148 4.12109 22.2539 4.12109H1.74609C0.785156 4.12109 0 3.33594 0 2.375C0 1.41406 0.785156 0.628906 1.74609 0.628906ZM1.74609 15.877H22.2539C23.2148 15.877 24 16.6621 24 17.623C24 18.584 23.2148 19.3691 22.2539 19.3691H1.74609C0.785156 19.3691 0 18.584 0 17.623C0 16.6621 0.785156 15.877 1.74609 15.877ZM1.74609 8.25195H22.2539C23.2148 8.25195 24 9.03711 24 9.99805C24 10.959 23.2148 11.7441 22.2539 11.7441H1.74609C0.785156 11.7441 0 10.959 0 9.99805C0 9.03906 0.785156 8.25195 1.74609 8.25195Z" fill="white"/>
</svg>
