<svg width="24" height="24" viewBox="0 0 24 24" fill="none" xmlns="http://www.w3.org/2000/svg">
<path d="M12 22C17.5228 22 22 17.5228 22 12C22 6.47715 17.5228 2 12 2C6.47715 2 2 6.47715 2 12C2 17.5228 6.47715 22 12 22Z" stroke="#23376D" stroke-width="2" stroke-linecap="round" stroke-linejoin="round"/>
<path d="M12 22C14.6667 19.5758 16 16.2424 16 12C16 7.75758 14.6667 4.42424 12 2C9.33333 4.42424 8 7.75758 8 12C8 16.2424 9.33333 19.5758 12 22Z" stroke="#23376D" stroke-width="2" stroke-linecap="round" stroke-linejoin="round"/>
<line y1="-1" x2="19.68" y2="-1" transform="matrix(-1 -3.76256e-06 3.3863e-09 -1 22.0803 10.7427)" stroke="#23376D" stroke-width="2"/>
</svg>
