<?xml version="1.0" encoding="UTF-8"?>
<svg id="Layer_3" data-name="Layer 3" xmlns="http://www.w3.org/2000/svg" viewBox="0 0 850.39 850.39">
  <defs>
    <style>
      .cls-1 {
        fill: #fff;
        stroke-width: 0px;
      }
    </style>
  </defs>
  <polygon class="cls-1" points="425.51 87.7 405.21 122.5 384.91 157.3 425.2 157.48 465.48 157.66 445.5 122.68 425.51 87.7 425.51 87.7"/>
  <polygon class="cls-1" points="461.07 555.7 389.32 555.7 389.32 627.45 461.07 627.45 461.07 555.7 461.07 555.7"/>
  <path class="cls-1" d="m425.2,306.91c27.44,0,49.77,22.33,49.77,49.77s-22.33,49.77-49.77,49.77-49.77-22.33-49.77-49.77,22.33-49.77,49.77-49.77m0-69.96c-66.12,0-119.73,53.6-119.73,119.73s53.6,119.73,119.73,119.73,119.73-53.6,119.73-119.73-53.6-119.73-119.73-119.73h0Z"/>
  <g>
    <path class="cls-1" d="m196.2,754.55c0-5.3,4.35-9.6,9.6-9.6h9.6v9.55c0,3,2.45,5.4,5.4,5.4l.75,2.15-.75,2.1c-3.05,0-5.7-1.5-7.4-3.7-1.75,2.25-4.5,3.7-7.6,3.7-5.25,0-9.6-4.3-9.6-9.6Zm9.6,5.35c3,0,5.35-2.4,5.35-5.35v-5.35h-5.35c-2.95,0-5.35,2.35-5.35,5.35s2.4,5.35,5.35,5.35Z"/>
    <path class="cls-1" d="m220.05,762.05l.75-2.15h18.4v-5.35c0-3-2.4-5.35-5.35-5.35h-8.8l1-4.25h7.8c5.3,0,9.65,4.25,9.65,9.6v9.6h-22.7l-.75-2.1Zm10.4,6.95h4.4v3.85h-4.4v-3.85Z"/>
    <path class="cls-1" d="m245.5,771.25l4.15-2.7v-21.75l4.3-1.1v25.1l-6.05,4.05-2.4-3.6Z"/>
    <path class="cls-1" d="m258.3,759.9h11.25v-5.35c0-3-2.4-5.35-5.4-5.35h-4.6v-4.25h4.6c5.35,0,9.6,4.25,9.6,9.6v9.6h-15.45v-4.25Z"/>
    <path class="cls-1" d="m323.1,760.5c-1.75,2.2-4.5,3.65-7.55,3.65h-22.35c-5.3,0-9.65-4.3-9.65-9.6v-7.8l4.3-1.05v8.85c0,2.95,2.4,5.35,5.35,5.35h22.35c2.95,0,5.35-2.4,5.35-5.35v-7.8l4.3-1.05v8.85c.05,2.95,2.3,5.35,5.25,5.35l.75,2.15-.75,2.1c-3,0-5.7-1.5-7.35-3.65Zm-23.85-14.05h10.35v3.65h-10.35v-3.65Z"/>
    <path class="cls-1" d="m329.7,762l.75-2.1h3.35v-13.95l4.25-1.1v9.8l9.05-9.7h8.8c5.3,0,9.6,4.25,9.6,9.6,0,2-.6,3.8-1.65,5.35h3.85l.75,2.1-.75,2.15h-37.25l-.75-2.15Zm26.2-2.1c2.95,0,5.35-2.4,5.35-5.35s-2.4-5.35-5.35-5.35l-7.25-.05-10,10.75h17.25Z"/>
    <path class="cls-1" d="m367.6,764.15l-.65-2.1.7-2.15h.05c2.95,0,5.35-2.4,5.35-5.35v-7.15h4.25v8.35c0,2.25,1.9,4.15,4.15,4.15s4.2-1.9,4.2-4.15v-8.35h4.25v8.35c0,2.25,1.9,4.15,4.15,4.15s4.2-1.9,4.2-4.15v-8.8l4.25-1.05v9.8c0,4.65-3.75,8.45-8.45,8.45-2.35,0-4.85-1.55-6.25-3-1.5,1.8-3.75,3-6.35,3s-5.3-1.8-6.55-3.35c-1.75,2.05-4.3,3.35-7.2,3.35h-.1Zm15.2-26.55h6.5v-4.7l3.95,1.15v7.15h-10.45v-3.6Z"/>
    <path class="cls-1" d="m415.1,771.3l10.8-7.15h-4.85c-4.65,0-9.25-4.4-9.25-9.6s4.3-9.65,9.6-9.65h9.65v20.9l-13.55,9.05-2.4-3.55Zm6.3-11.4h5.4v-10.75h-5.4c-2.95,0-5.35,2.4-5.35,5.35s2.4,5.4,5.35,5.4Z"/>
    <path class="cls-1" d="m439.55,759.9h11.25v-5.35c0-3-2.4-5.35-5.4-5.35h-4.6v-4.25h4.6c5.35,0,9.6,4.25,9.6,9.6v5.35h2.65l.75,2.1-.75,2.15h-18.1v-4.25Z"/>
    <path class="cls-1" d="m456.9,762l.75-2.1h3.35v-13.95l4.25-1.1v9.8l9.05-9.7h8.8c5.3,0,9.6,4.25,9.6,9.6,0,2-.6,3.8-1.65,5.35h3.85l.75,2.1-.75,2.15h-37.25l-.75-2.15Zm26.2-2.1c2.95,0,5.35-2.4,5.35-5.35s-2.4-5.35-5.35-5.35l-7.25-.05-10,10.75h17.25Z"/>
    <path class="cls-1" d="m490.3,769.1h10.35v3.7h-10.35v-3.7Zm4.55-4.95l-.7-2.1.7-2.15h.05c2.95,0,5.35-2.4,5.35-5.35v-7.8l4.25-1.05v8.85c0,2.95,2.4,5.35,5.35,5.35l.75,2.15-.75,2.1c-3.1,0-5.85-1.55-7.5-3.8-1.65,2.25-4.35,3.8-7.45,3.8h-.05Z"/>
    <path class="cls-1" d="m509.1,762.05l.75-2.15h4c2.95,0,5.4-2.4,5.4-5.35v-7.15h4.2v8.35c0,2.25,1.9,4.15,4.2,4.15s4.15-1.9,4.15-4.15v-8.35h4.3v8.35c0,2.25,1.85,4.15,4.15,4.15s4.2-1.9,4.2-4.15v-8.8l4.2-1.05v9.8c0,4.65-3.75,8.45-8.4,8.45-2.4,0-4.85-1.5-6.3-3-1.45,1.8-3.75,3-6.3,3s-5.3-1.8-6.55-3.35c-1.75,2-4.3,3.35-7.25,3.35h-4l-.75-2.1Z"/>
    <path class="cls-1" d="m558.45,754.55c0-5.3,4.35-9.6,9.6-9.6h9.6v9.6c0,5.3-4.25,9.6-9.6,9.6s-9.6-4.3-9.6-9.6Zm9.6,5.35c3,0,5.35-2.4,5.35-5.35v-5.35h-5.35c-2.95,0-5.35,2.35-5.35,5.35s2.4,5.35,5.35,5.35Z"/>
    <path class="cls-1" d="m584.8,771.3l10.8-7.15h-4.85c-4.65,0-9.25-4.4-9.25-9.6s4.3-9.65,9.6-9.65h9.65v20.9l-13.55,9.05-2.4-3.55Zm6.3-11.4h5.4v-10.75h-5.4c-2.95,0-5.35,2.4-5.35,5.35s2.4,5.4,5.35,5.4Z"/>
    <path class="cls-1" d="m603.15,771.25l4.15-2.7v-21.75l4.3-1.1v8.85c0,2.95,2.4,5.35,5.3,5.35l.75,2.15-.75,2.1c-1.95,0-3.85-1-5.3-2.5v9.15l-6.05,4.05-2.4-3.6Z"/>
    <path class="cls-1" d="m616.1,762.05l.75-2.15h29.5c2.95,0,5.35-2.4,5.35-5.35s-2.4-5.35-5.35-5.35h-26.95v-4.3l18.65-11.55,2.35,3.4-13.3,8.2h19.25c5.35,0,9.65,4.25,9.65,9.6s-4.3,9.6-9.65,9.6h-29.5l-.75-2.1Zm19.05-33.05l1,1.65-9.95,6.15-1-1.65,9.95-6.15Z"/>
  </g>
</svg>