<svg width="391" height="178" viewBox="0 0 391 178" fill="none" xmlns="http://www.w3.org/2000/svg">
<path d="M373.216 105.602C372.952 106.186 372.651 106.751 372.331 107.297C369.817 111.553 365.542 114.99 360.524 115.545C359.987 115.602 359.45 115.63 358.923 115.63C355.966 115.621 353.057 114.924 350.307 113.86C348.933 113.333 347.586 112.711 346.277 112.033C345.119 111.44 343.81 110.866 342.775 110.075C342.728 110.037 342.473 109.905 342.492 109.82C338.66 126.044 325.365 139.932 309.057 143.416C292.758 146.891 274.387 139.104 266.459 124.443C260.311 113.069 260.574 99.4066 256.996 86.9871C252.759 72.3078 243.023 59.4929 230.707 50.4631C218.392 41.4333 203.609 36.0568 188.506 33.8159L218.344 3.9771C211.64 3.81703 188.882 3.80762 188.882 3.80762C188.882 3.80762 184.184 7.7246 179.382 11.5098C167.48 20.8785 156.934 31.8574 147.142 43.4106C136.059 56.4798 125.74 70.6694 120.523 86.9871C115.316 103.314 115.844 122.193 125.391 136.43C130.984 128.473 140.287 123.257 149.995 122.617C145.343 105.894 150.729 86.4504 164.203 75.5092C177.677 64.568 198.75 63.6076 212.431 74.2945C222.092 81.846 227.28 93.7194 230.802 105.461C234.323 117.202 236.611 129.443 242.185 140.365C251.554 158.707 270.216 171.852 290.554 175.091C310.893 178.33 332.455 171.795 347.991 158.274C363.527 144.753 372.915 124.575 373.875 104.001C373.856 104.501 373.433 105.178 373.225 105.63L373.216 105.602Z" fill="white"/>
<path d="M56.43 33.9665C63.7931 33.9665 69.7722 39.955 69.7722 47.3088C69.7722 54.6625 64.3581 60.0578 57.4939 60.6039C57.1361 60.6039 56.7878 60.5757 56.43 60.5757C56.0722 60.5757 55.7238 60.5945 55.366 60.6039H45.6112V90.7911H54.9893C55.4696 90.8099 55.9498 90.8287 56.4394 90.8287C56.929 90.8287 57.4092 90.8099 57.8894 90.7911C68.6235 91.4031 77.5779 98.7098 80.6475 108.596C80.6946 108.662 80.7416 108.719 80.7793 108.785C83.5758 113.54 88.5662 117.033 94.0462 117.815C98.4057 118.436 102.944 117.325 106.635 114.952C108.688 113.634 110.289 111.948 111.597 109.971C111.503 109.18 111.409 108.389 111.287 107.608C109.149 93.7477 101.89 81.5636 91.4851 73.0799C96.8051 65.8674 99.9594 56.9506 99.9594 47.3182C99.9594 23.3266 80.4403 3.80762 56.4488 3.80762C32.4572 3.80762 12.9571 23.3172 12.9382 47.2899H43.1066C43.1254 39.9456 49.1044 33.9759 56.4488 33.9759L56.43 33.9665Z" fill="white"/>
<path d="M81.6739 118.266C81.4197 121.251 80.6193 124.151 79.6024 126.957C79.4612 127.353 79.3011 127.729 79.1316 128.115C79.0186 128.388 78.4819 129.17 78.5196 129.433C77.2955 131.787 75.6948 133.925 73.8211 135.78C73.6234 135.959 73.4445 136.138 73.275 136.316C68.746 140.535 62.6822 143.124 56.0252 143.124C45.809 143.124 36.638 137.041 32.6645 127.635C31.3463 124.518 30.6777 121.204 30.6777 117.777C30.6777 114.349 31.3745 111.035 32.6268 108.031H1.36625C0.801305 111.195 0.5 114.453 0.5 117.777C0.5 125.262 1.96887 132.541 4.86895 139.386C13.5786 159.978 33.6531 173.292 56.0158 173.292C75.9491 173.292 93.4531 162.728 103.255 146.9C103.255 146.9 110.515 135.808 111.475 123.002C111.475 122.974 111.475 122.955 111.475 122.937C111.682 121.261 111.823 119.575 111.88 117.861C107.558 121.496 101.918 123.539 96.2684 123.454C91.3816 123.379 85.6756 121.562 81.6457 118.285L81.6739 118.266Z" fill="white"/>
<path d="M227.252 122.889C220.633 137.747 205.737 148.133 188.449 148.133C177.659 148.133 167.81 144.075 160.315 137.418C158.422 135.742 156.774 133.812 155.07 131.947C153.441 130.149 151.464 129.01 149.223 128.068C145.099 126.326 140.165 126.477 136.22 128.624C133.084 130.328 130.664 133.247 129.421 136.58C128.546 138.924 128.404 141.307 128.753 143.774C128.838 144.386 128.903 145.035 128.988 145.676C141.86 164.771 163.686 177.322 188.449 177.322C209.682 177.322 228.758 168.076 241.875 153.397C241.366 152.841 240.848 152.267 240.33 151.626C232.487 142.079 228.89 130.733 227.252 122.88V122.889Z" fill="white"/>
<path d="M389.76 25.8495C389.722 25.5105 389.647 25.1715 389.496 24.8514L379.214 2.42287C378.452 0.765685 376.502 0.0406644 374.845 0.803347C373.188 1.56603 372.463 3.51511 373.226 5.17229L376.502 12.3095L366.55 2.28164C365.269 0.99167 363.179 0.982251 361.889 2.2628C360.599 3.54336 360.59 5.63367 361.87 6.92364L367.501 12.592L355.289 7.19669C353.622 6.46226 351.682 7.21553 350.938 8.88213C350.204 10.5487 350.957 12.4884 352.624 13.2322L364.092 18.298C363.104 19.1266 362.219 20.0681 361.456 21.1227C360.863 21.9231 360.354 22.7987 359.921 23.7121C359.921 23.7121 359.921 23.7215 359.921 23.7309C359.535 25.6894 360.458 27.7985 362.35 28.8531C362.765 29.0791 363.188 29.2486 363.622 29.3427C361.946 29.3427 360.326 30.2278 359.441 31.7909C359.008 32.563 358.81 33.3915 358.829 34.2201C359.036 35.1617 359.337 36.0656 359.723 36.9319C361.889 41.9223 366.559 45.6886 372.35 46.4513C381.135 47.6189 389.204 41.4232 390.363 32.6383C390.673 30.2843 390.447 27.9869 389.788 25.8495H389.76ZM381.041 31.4142C380.561 35.0676 377.209 37.6381 373.546 37.1579C371.107 36.8377 369.168 35.2465 368.273 33.1373C368.132 32.8078 368.028 32.4782 367.943 32.1298C367.548 31.2353 366.87 30.4726 365.938 29.9453C365.552 29.7288 365.147 29.5687 364.733 29.4746C366.089 29.4746 367.397 28.919 368.301 27.8927C368.527 27.3748 368.81 26.8946 369.139 26.4615C370.542 24.6442 372.849 23.6085 375.288 23.9286C378.941 24.4088 381.512 27.7703 381.031 31.4236L381.041 31.4142Z" fill="white"/>
<path d="M344.084 48.1753C342.342 46.857 340.534 45.633 338.66 44.5031C335.082 51.565 327.559 60.5288 324.358 61.4139L324.282 61.3857C322.267 57.1015 324.81 44.6443 328.764 39.428C326.401 38.4393 323.981 37.573 321.495 36.8574C318.84 45.8684 317.522 55.7456 317.164 66.2348C318.633 66.828 320.064 67.506 321.439 68.2498L324.508 70.1047L324.565 70.133C332.051 63.2218 338.66 55.9527 344.084 48.1753Z" fill="white"/>
<path d="M292.683 42.0831C287.532 43.1 282.429 44.3052 277.363 45.6893C277.759 47.1676 278.154 48.6365 278.54 50.1148C283.003 48.8436 287.513 47.742 292.061 46.8192C292.052 47.4219 292.033 48.0339 292.024 48.6365C291.92 50.1901 291.845 51.7814 291.807 53.4009C287.918 54.2766 284.03 55.1617 280.131 56.0468C280.583 57.7228 281.026 59.4082 281.478 61.0936C284.915 60.1332 288.361 59.1728 291.798 58.2218C291.826 60.1521 291.901 62.1294 292.024 64.1444C286.544 65.2272 281.299 67.5435 276.808 70.8579C276.422 69.9163 276.026 68.9747 275.631 68.0331C275.763 70.0293 274.708 71.9218 273.39 73.4284C272.071 74.9255 270.471 76.1684 269.19 77.7032C267.976 79.1532 266.996 80.9046 265.349 81.8273C263.465 82.8819 260.885 82.5335 259.36 80.9987C257.42 79.0685 257.364 75.9612 255.961 73.6073C259.106 73.4849 262.232 72.8729 265.189 71.79C266.281 71.3946 267.401 70.8861 268.089 69.9539C268.776 69.0124 268.832 67.5153 267.919 66.7997C267.241 66.263 266.271 66.31 265.405 66.4136C261.676 66.8844 257.863 68.0237 254.228 67.0727C253.682 66.9315 253.136 66.7337 252.694 66.3759C252.298 66.0652 252.006 65.6321 251.724 65.2178C251.432 64.7846 251.14 64.3421 250.858 63.8996C250.264 62.9768 249.718 62.0164 249.323 60.9995C248.993 60.1615 248.504 58.8621 248.739 57.9488C249.229 56.0279 250.801 54.5308 252.232 53.2785C255.396 50.482 258.739 47.8926 262.223 45.5104C263.098 48.1469 263.964 50.7833 264.84 53.4197C262.599 53.6363 260.424 54.5214 258.673 55.9526C257.722 56.7247 256.837 58.0429 257.477 59.0975C258.032 60.0108 259.341 60.0202 260.405 59.8696C262.58 59.5494 264.737 58.9939 266.93 58.9845C269.134 58.9751 271.459 59.6154 272.891 61.282C270.471 55.3217 268.042 49.3709 265.612 43.4107C274.322 38.458 284.096 35.3696 294.076 34.4092C293.502 36.8855 293.031 39.4372 292.683 42.0831Z" fill="white"/>
<path d="M314.066 35.0963C313.021 34.8986 311.966 34.7385 310.912 34.5973C309.038 34.343 307.136 34.1547 305.215 34.0606C304.961 34.0606 304.707 34.0606 304.443 34.0417C303.53 33.9852 302.654 33.957 301.816 33.9382H301.213C299.528 33.9193 298.031 33.9758 296.788 34.0794C296.778 34.07 296.76 34.0794 296.75 34.0794C296.515 34.0982 296.298 34.1171 296.082 34.1359C294.085 42.3653 293.323 51.4987 293.784 61.8373C293.85 62.4681 293.925 63.1084 294.001 63.7393C294.001 63.6169 298.586 63.372 299.048 63.3438C299.179 63.3438 301.213 63.2685 301.213 63.2402L301.825 52.3932L302.993 52.4591C304.302 52.5344 305.168 52.8357 305.761 53.7867C306.034 54.201 306.241 54.7377 306.42 55.4345C306.524 55.8582 306.618 56.3478 306.703 56.9034C307.089 59.3232 307.607 61.9597 308.03 63.7204L310.121 64.0688C311.9 64.4454 313.623 64.9351 315.309 65.5377C314.913 62.9578 314.424 58.8336 313.981 56.4326C313.934 56.1595 313.887 55.9147 313.84 55.6887C313.303 53.1276 312.437 51.2068 310.695 50.2746V50.124C312.766 49.4366 315.299 47.1674 315.676 43.7871C315.704 43.6459 315.714 43.4952 315.723 43.3446C315.855 41.0189 315.215 37.2337 314.066 35.0963ZM304.029 46.9038L302.145 46.8002L302.541 39.8984C302.908 39.8231 303.633 39.7854 304.989 39.8701C306.722 39.9737 307.861 40.6987 308.313 41.9039C309.047 45.0018 306.665 47.2992 304.029 46.9038Z" fill="white"/>
<path d="M367.557 78.8043L361.22 81.2524C360.938 79.8212 359.262 75.3016 358.123 73.5691C355.853 70.1323 351.682 68.607 346.739 71.8742C342.351 74.7649 341.231 78.9832 343.942 83.0979C344.714 84.2749 346.202 85.7532 347.266 86.6289L340.421 89.2653C340.421 89.2653 340.393 89.1994 340.383 89.1711C339.865 87.9753 339.31 86.7984 338.698 85.659C338.613 85.4896 338.519 85.3295 338.425 85.1694C338.114 84.5856 337.775 84.0018 337.427 83.4369C336.928 82.6083 336.391 81.7985 335.826 81.0076C335.619 80.7157 335.412 80.4238 335.195 80.1413C334.847 77.3354 335.374 74.6143 336.541 72.2132C335.035 73.6256 333.491 74.9815 331.918 76.2903C331.768 76.1302 331.626 75.9796 331.476 75.8289C330.129 74.4542 328.689 73.1736 327.154 72.0061C326.796 71.7048 326.419 71.4317 326.052 71.1681C332.898 62.8821 339.639 55.6508 346.24 50.1143C347.304 51.0088 348.33 51.9315 349.338 52.8825C350.204 53.7017 351.051 54.5397 351.861 55.406C349.366 58.6638 346.748 61.7805 344.018 64.7465C350.91 61.1402 357.614 62.8257 361.889 67.4488C362.388 68.2398 362.868 69.0401 363.33 69.8498C363.81 70.6784 364.271 71.507 364.714 72.3545C364.732 72.3921 364.761 72.4392 364.78 72.4769C364.798 72.524 364.817 72.5616 364.836 72.5993C365.373 73.635 366.917 77.3449 367.557 78.8043Z" fill="white"/>
<path d="M365.147 89.7363L360.383 91.337L365.627 107.4C364.121 108.427 362.52 109.18 360.91 109.66C360.42 109.801 359.912 109.924 359.394 110.018L353.989 93.5026L348.556 95.3387L353.387 109.886C350.449 109.161 346.428 107.476 343.67 104.745C343.604 100.894 343.02 97.1654 341.965 93.6345C341.824 93.1543 341.683 92.6835 341.523 92.2221C341.466 92.0432 341.4 91.8643 341.335 91.6854C341.259 91.4688 341.184 91.2428 341.099 91.0263L368.349 80.5088C368.405 80.65 368.452 80.7912 368.509 80.9325C369.045 82.3825 369.526 83.842 369.959 85.3297C371.192 89.5009 372.058 93.8416 372.501 98.2953C371.701 100.583 370.533 102.57 369.139 104.208L365.147 89.7363Z" fill="white"/>
</svg>
