<svg width="398" height="180" viewBox="0 0 398 180" fill="none" xmlns="http://www.w3.org/2000/svg">
<path d="M94.5312 115.247C98.9367 115.882 103.525 114.756 107.257 112.352C109.335 111.015 110.951 109.312 112.279 107.321C112.192 106.523 112.086 105.724 111.961 104.926C109.797 90.9202 102.457 78.5981 91.9436 70.0178C97.3207 62.7265 100.505 53.7134 100.505 43.9788C100.505 19.7289 80.7758 0 56.5259 0C32.276 0 12.5567 19.7193 12.5471 43.9595H43.0398C43.0591 36.5336 49.0999 30.4927 56.5259 30.4927C63.9519 30.4927 70.0119 36.5432 70.0119 43.9788C70.0119 51.4144 64.5387 56.8588 57.6032 57.4167C57.2473 57.4167 56.8914 57.3879 56.5259 57.3879C56.1604 57.3879 55.8045 57.4071 55.4485 57.4167H45.5889V87.9287H55.0638C55.5543 87.9479 56.0353 87.9672 56.5259 87.9672C57.0165 87.9672 57.507 87.9479 57.988 87.9287C68.8384 88.5443 77.89 95.9414 80.997 105.926C81.0451 105.993 81.0932 106.051 81.1317 106.119C83.9597 110.928 89.0002 114.449 94.5408 115.247" fill="#333336"/>
<path d="M82.0418 115.71C81.782 118.73 80.974 121.654 79.9544 124.502C79.8101 124.896 79.6466 125.281 79.4831 125.666C79.3676 125.945 78.8193 126.733 78.8674 127.003C77.6266 129.388 76.0106 131.543 74.1156 133.419C73.9136 133.601 73.7308 133.784 73.5673 133.957C68.9886 138.219 62.8612 140.835 56.1278 140.835C45.8064 140.835 36.5335 134.688 32.5127 125.185C31.1757 122.039 30.5023 118.682 30.5023 115.219C30.5023 111.756 31.2045 108.409 32.4743 105.369H0.875339C0.307809 108.572 0 111.862 0 115.219C0 122.789 1.48135 130.138 4.41519 137.064C13.2167 157.88 33.5131 171.337 56.1181 171.337C76.2703 171.337 93.9599 160.65 103.877 144.654C103.877 144.654 111.207 133.438 112.188 120.5C112.188 120.481 112.188 120.452 112.188 120.433C112.4 118.74 112.534 117.028 112.592 115.296C108.225 118.971 102.521 121.039 96.8168 120.952C91.8725 120.875 86.1107 119.038 82.0322 115.719L82.0418 115.71Z" fill="#333336"/>
<path d="M229.181 123.444C222.486 138.46 207.432 148.964 189.954 148.964C179.046 148.964 169.09 144.856 161.51 138.133C159.596 136.44 157.931 134.487 156.21 132.602C154.565 130.784 152.564 129.629 150.304 128.677C146.138 126.917 141.146 127.071 137.164 129.235C133.989 130.957 131.546 133.91 130.286 137.277C129.391 139.652 129.257 142.057 129.613 144.549C129.699 145.174 129.767 145.828 129.844 146.472C142.858 165.768 164.915 178.466 189.944 178.466C211.414 178.466 230.691 169.116 243.956 154.283C243.436 153.725 242.917 153.139 242.388 152.494C234.461 142.836 230.825 131.38 229.171 123.435L229.181 123.444Z" fill="#333336"/>
<path d="M374.623 80.7637C373.796 78.2627 368.168 67.1238 366.764 64.0264C365.446 68.355 362.955 72.3855 359.328 75.252C356.106 77.801 354.413 78.5128 350.642 80.023C348.805 80.7637 346.054 81.389 342.687 81.8603C343.351 83.2551 346.554 91.1716 346.833 92.047C349.825 101.166 349.805 109.544 346.977 118.211C346.91 118.278 346.862 118.384 346.843 118.509C346.833 118.605 346.756 118.692 346.669 118.788C346.477 119.49 346.256 120.183 346.025 120.866C345.554 122.088 345.025 123.319 344.438 124.569C340.061 133.871 333.693 140.402 326.546 144.587C320.275 148.175 313.031 150.233 305.307 150.233C303.989 150.233 302.681 150.176 301.373 150.05C300.084 149.935 298.795 149.752 297.516 149.521C296.256 149.291 295.005 149.002 293.774 148.656C292.552 148.319 291.35 147.925 290.167 147.473C288.993 147.03 287.839 146.53 286.704 145.982C285.578 145.443 284.482 144.847 283.404 144.202C282.337 143.567 281.298 142.884 280.288 142.153C279.278 141.432 278.306 140.662 277.363 139.854C276.421 139.046 275.517 138.2 274.651 137.315C273.785 136.43 272.958 135.506 272.169 134.544C271.38 133.582 270.63 132.592 269.928 131.572C269.226 130.543 268.562 129.494 267.946 128.407C267.331 127.32 266.763 126.205 266.244 125.07C265.724 123.925 265.253 122.751 264.83 121.568C264.406 120.375 264.041 119.154 263.724 117.923C263.406 116.682 263.146 115.422 262.935 114.152C262.723 112.863 262.579 111.564 262.492 110.266C262.435 109.361 262.435 108.467 262.406 107.563C262.377 106.649 262.338 105.725 262.31 104.812C262.281 103.898 262.281 102.974 262.204 102.07C262.204 101.993 262.194 101.926 262.184 101.859C262.136 101.204 262.079 100.55 262.011 99.8962C261.877 98.5976 261.713 97.3087 261.511 96.0197C261.309 94.7404 261.078 93.4706 260.809 92.2009C260.54 90.9504 260.241 89.6999 259.914 88.459C259.587 87.2278 259.222 86.0062 258.827 84.7941C258.433 83.5918 258.01 82.399 257.558 81.2158C257.106 80.0423 256.615 78.8784 256.105 77.7241C255.595 76.5794 255.047 75.4443 254.48 74.3285C253.912 73.2127 253.306 72.1161 252.681 71.0291C252.055 69.9518 251.401 68.8841 250.718 67.8452C250.035 66.7967 249.333 65.7771 248.602 64.7671C247.871 63.757 247.111 62.7759 246.332 61.8044C245.553 60.8425 244.745 59.8901 243.918 58.9667C243.09 58.0433 242.234 57.1391 241.359 56.2541C240.484 55.3692 239.589 54.513 238.666 53.6762C237.752 52.8393 236.809 52.0313 235.847 51.2425C234.885 50.4538 233.904 49.6939 232.904 48.9532C231.903 48.2125 230.884 47.5007 229.845 46.8177C228.806 46.1348 227.748 45.471 226.671 44.8362C225.593 44.2013 224.497 43.5953 223.39 43.0182C222.275 42.441 221.149 41.8831 220.014 41.3637C218.869 40.8442 217.705 40.344 216.542 39.8823C215.368 39.4206 214.175 38.9877 212.973 38.5837C211.77 38.1797 210.549 37.8046 209.318 37.4679C208.086 37.1216 206.836 36.8138 205.585 36.5445C204.325 36.2655 203.056 36.025 201.786 35.8134C200.497 35.6018 199.208 35.4286 197.909 35.2844C196.601 35.1401 195.293 35.0343 193.975 34.9669C192.648 34.89 191.311 34.8611 189.964 34.8611C189.877 34.8611 189.8 34.8611 189.714 34.8611L220.543 4.32031H187.646L162.059 29.6668L136.385 58.3896C136.376 58.4569 136.356 58.5339 136.337 58.6012C124.659 71.462 117.541 88.5456 117.541 107.284C117.541 110.718 117.791 114.152 118.272 117.547C118.522 119.26 118.83 120.972 119.196 122.655C119.859 125.685 120.754 128.657 121.822 131.572C122.36 133.034 122.938 134.467 123.553 135.901C123.861 136.613 124.178 137.315 124.506 138.017C124.698 138.44 125.371 139.344 125.275 139.806C126.227 135.064 129.007 130.716 132.932 127.898C134.5 126.772 136.251 125.897 138.069 125.252C139.954 124.589 141.935 124.175 143.927 124.117C145.947 124.06 147.842 124.502 149.775 125.002C149.9 125.031 150.035 125.07 150.16 125.07C150.439 125.07 150.718 124.829 150.66 124.531C148.332 119.25 147.034 113.421 147.034 107.284C147.034 88.3051 159.423 72.1642 176.536 66.5177C176.814 66.4408 177.084 66.3542 177.353 66.2484C181.345 65.0172 185.578 64.3534 189.964 64.3534C190.628 64.3534 191.291 64.3727 191.945 64.4016C192.6 64.4304 193.263 64.4785 193.917 64.5362C194.571 64.5939 195.216 64.6709 195.86 64.7575C196.505 64.844 197.14 64.9498 197.775 65.0653C198.409 65.1807 199.035 65.3153 199.66 65.4596C200.285 65.6039 200.901 65.7675 201.516 65.931C202.132 66.1041 202.738 66.2869 203.344 66.4889C203.94 66.6813 204.537 66.8929 205.133 67.1238C205.72 67.345 206.307 67.5855 206.884 67.8356C207.461 68.0857 208.029 68.3454 208.596 68.6147C209.164 68.8841 209.722 69.1726 210.27 69.4708C210.818 69.769 211.366 70.0768 211.896 70.3943C212.434 70.7117 212.963 71.0484 213.483 71.385C214.002 71.7313 214.512 72.0776 215.022 72.4432C215.522 72.8087 216.022 73.1838 216.513 73.5686C217.003 73.9534 217.484 74.3477 217.946 74.7517C218.417 75.1557 218.879 75.5694 219.331 75.9926C219.783 76.4159 220.226 76.8487 220.659 77.3008C221.091 77.7433 221.515 78.1954 221.928 78.6571C222.342 79.1188 222.746 79.5902 223.14 80.0711C223.535 80.5521 223.919 81.0427 224.295 81.5333C224.67 82.0335 225.035 82.5336 225.382 83.0531C225.737 83.5629 226.074 84.0919 226.401 84.621C226.728 85.1501 227.046 85.6887 227.354 86.2274C227.661 86.7757 227.96 87.324 228.238 87.8819C228.527 88.4398 228.796 89.0073 229.056 89.5749C229.316 90.152 229.566 90.7292 229.797 91.3063C230.028 91.8931 230.258 92.4799 230.46 93.0762C230.672 93.6726 230.865 94.2786 231.047 94.8847C231.23 95.5003 231.403 96.1063 231.557 96.7315C231.711 97.3568 231.855 97.982 231.99 98.6073C232.115 99.2421 232.24 99.877 232.336 100.512C232.442 101.156 232.529 101.801 232.596 102.445C232.673 103.099 232.731 103.754 232.769 104.408C232.817 105.071 232.846 105.725 232.856 106.389C232.856 106.822 232.856 107.255 232.856 107.688C232.865 108.159 232.894 108.621 232.904 109.092C232.904 109.169 232.904 109.246 232.904 109.323C234 148.367 265.974 179.697 305.288 179.697C339.503 179.697 368.159 155.966 375.739 124.069C379.567 109.823 379.23 94.8173 374.594 80.6964L374.623 80.7637Z" fill="#333336"/>
<path fill-rule="evenodd" clip-rule="evenodd" d="M382.273 29.5314C378.926 31.3205 374.77 30.1085 372.981 26.8188C371.134 23.529 372.346 19.3735 375.694 17.5844C378.926 15.7375 383.139 16.9495 384.928 20.2392C386.775 23.5867 385.505 27.6845 382.273 29.5314ZM390.007 12.5632C389.141 11.6397 388.218 10.8894 387.179 10.2546L387.641 7.59968C387.756 6.67624 387.237 5.86824 386.371 5.57967L382.389 4.42537C381.523 4.19451 380.657 4.5985 380.311 5.46423L379.214 7.94597C378.002 7.88826 376.675 8.00369 375.463 8.29226L373.904 6.0991C373.385 5.3488 372.404 5.17566 371.596 5.57967L368.018 7.54197C367.21 8.00369 366.921 8.92713 367.21 9.73513L368.191 12.2169C367.267 13.1403 366.402 14.1792 365.709 15.3335L363.112 14.8718C362.188 14.6986 361.38 15.2758 361.149 16.0838L359.937 20.0661C359.707 20.9318 360.111 21.8553 360.976 22.1439L363.343 23.1827C363.285 24.5102 363.458 25.8953 363.747 27.1651L361.727 28.5502C361.034 29.1273 360.803 30.0508 361.207 30.8588L363.169 34.4948C363.631 35.2451 364.612 35.5914 365.363 35.2451L367.671 34.3217C368.537 35.3028 369.576 36.1109 370.672 36.8034L370.326 39.1698C370.153 40.0355 370.672 40.9012 371.538 41.1321L375.463 42.3441C376.328 42.5749 377.252 42.1132 377.598 41.3052L378.522 39.112C379.907 39.2275 381.234 38.9966 382.619 38.708L384.005 40.6703C384.466 41.4206 385.505 41.5938 386.255 41.1898L389.891 39.2275C390.642 38.7657 390.988 37.7846 390.642 36.9766L389.718 34.7834C390.757 33.8023 391.681 32.7057 392.373 31.4359L394.797 31.84C395.721 32.0131 396.529 31.4937 396.817 30.6279L397.914 26.6456C398.202 25.7799 397.741 24.9142 396.933 24.5679L394.566 23.5867C394.566 22.2593 394.393 20.9318 394.105 19.6621L396.182 18.2192C396.875 17.6421 397.106 16.6609 396.702 15.9106L394.682 12.2746C394.278 11.5243 393.354 11.1203 392.489 11.5243L390.007 12.5632Z" fill="#333336"/>
<path d="M270.632 50.2218C272.027 49.3849 273.422 48.7693 275.173 48.2787L274.432 46.0279C273.643 43.6327 273.835 41.074 274.971 38.8135C275.365 38.0343 275.846 37.3225 276.433 36.6973C272.893 38.3614 270.584 39.1598 261.648 44.9794C258.974 46.7204 256.367 48.9906 253.885 51.53C251.731 53.7328 251.529 57.1861 253.299 59.7063L256.338 64.0445C258.099 61.4762 261.08 58.1961 263.764 55.6278L274.817 72.442C276.971 70.5471 279.299 68.7868 281.733 67.1227L270.632 50.2218Z" fill="#333336"/>
<path d="M298.981 49.6636L300.52 38.7651C300.625 38.0052 300.827 37.2741 301.106 36.5719C301.385 35.8794 301.751 35.2349 302.184 34.6385C300.202 31.8585 296.826 30.3291 293.392 30.7235C292.757 30.7908 292.122 30.9255 291.497 31.1371L282.58 34.0806C280.185 34.8693 278.242 36.5527 277.107 38.8132C275.962 41.0737 275.77 43.6324 276.558 46.0276L280.06 56.6279C281.252 60.2447 284.427 62.6494 287.986 63.0535C288.332 63.1015 288.698 63.1208 289.054 63.1208C290.035 63.1208 291.025 62.9669 292.007 62.6398L300.924 59.6964C301.664 59.4559 302.357 59.1288 302.992 58.7345C302.636 58.4747 302.29 58.2054 301.972 57.9072C299.74 55.8776 298.528 52.8283 298.971 49.6636H298.981ZM296.278 44.4693L296.826 46.1334C296.999 46.6624 297.086 47.1915 297.086 47.7205C297.086 49.8367 295.739 51.8087 293.623 52.5205C292.728 52.8187 291.814 52.8475 290.958 52.6648C289.265 52.2896 287.813 51.068 287.236 49.3077L286.678 47.6339C285.812 44.9887 287.245 42.1414 289.89 41.2565C290.073 41.1988 290.256 41.1506 290.429 41.1122C292.92 40.5831 295.46 41.9971 296.278 44.4693Z" fill="#333336"/>
<path d="M327.811 47.6827L330.312 43.0751L330.331 42.9597C331.052 37.8616 327.445 33.0905 322.289 32.3113L313.016 30.9262C312.228 30.8107 311.448 30.7915 310.679 30.8684C309.005 31.0223 307.408 31.6284 306.033 32.648C304.744 33.6003 303.743 34.8315 303.099 36.2455C302.743 37.0343 302.493 37.8808 302.368 38.7658L302.214 39.8527L300.829 49.6643C300.444 52.3673 301.281 54.9837 302.935 56.9556C303.243 57.3403 303.59 57.6963 303.965 58.0233C304.58 58.5716 305.263 59.0333 306.014 59.4085C306.889 59.851 307.851 60.1588 308.87 60.3127L318.143 61.7074C318.316 61.7363 318.49 61.7555 318.663 61.7652C319.769 61.871 320.856 61.7844 321.876 61.5151C321.818 61.3131 321.77 61.1111 321.741 60.8994C321.702 60.659 321.683 60.4089 321.683 60.1684C321.683 59.4181 321.866 58.6582 322.251 57.9464L327.811 47.6827ZM315.537 52.1653C315.286 52.1653 315.036 52.146 314.777 52.1075C314.729 52.0979 314.671 52.0883 314.623 52.0787C311.939 51.6074 310.092 49.1064 310.467 46.4226L310.708 44.7104C311.016 42.5653 312.66 40.9397 314.7 40.5453C315.248 40.4491 315.815 40.4299 316.393 40.5164C319.153 40.9301 321.077 43.4792 320.692 46.211L320.452 47.9136C320.106 50.3953 317.98 52.1653 315.537 52.1653Z" fill="#333336"/>
<path d="M338.032 62.8129H338.041C338.263 62.5435 338.417 62.3608 338.474 62.2934L336.127 60.2446C334.357 58.9075 334.569 57.0125 335.742 55.1175L342.139 44.8251C343.226 43.0744 342.659 40.7754 340.918 39.7558C340.812 39.6788 340.706 39.6211 340.6 39.573L339.013 38.8131C337.205 37.957 335.05 38.6592 334.098 40.4195L329.5 48.9036V48.9228L326.999 53.5304L323.67 59.677H323.661L323.613 59.7828C323.382 60.2061 323.247 60.6486 323.18 61.0911C323.016 62.2742 323.411 63.467 324.238 64.3231H324.248C324.594 64.6982 325.027 64.9964 325.527 65.1984L326.354 65.5447C328.393 66.4585 328.845 66.7279 330.009 67.5166C330.75 68.0265 331.635 68.1996 332.472 68.0553C332.53 67.8822 332.607 67.7283 332.722 67.584C333.588 66.4874 334.915 65.0734 335.973 63.9575C336.772 63.1111 337.435 62.8129 338.032 62.8129Z" fill="#333336"/>
<path d="M352.343 56.5226L361.404 64.747C362.52 61.9286 362.626 61.1783 363.001 59.014C360.663 56.186 358.374 53.281 355.594 50.6068C355.584 50.5876 355.565 50.578 355.546 50.5588C354.276 49.3371 352.891 48.1636 351.362 47.067C348.601 45.0855 345.321 46.8169 343.705 49.8085L341.098 53.2714C339.02 55.9647 339.357 57.7924 340.502 59.2256H340.511C341.444 60.3895 342.906 61.2841 344.07 62.1883L346.869 64.3622H346.879L347.37 64.747C347.899 65.1606 348.178 65.7859 348.178 66.4111C348.178 66.8825 348.014 67.3634 347.687 67.7578C346.985 68.5947 345.754 68.7582 344.869 68.1233C343.685 67.2769 342.233 65.6127 340.906 64.6508C339.876 63.9005 338.722 63.1791 337 64.9971C335.942 66.1226 334.615 67.5269 333.749 68.6235C333.326 69.1718 333.278 69.9606 333.585 70.557C333.585 70.557 333.585 70.5666 333.595 70.5666C333.691 70.7686 333.835 70.9417 334.018 71.086C334.336 71.3361 334.663 71.6151 334.999 71.9229L335.057 71.9806C336.519 73.3369 338.001 75.1165 338.876 76.2323C339.376 76.8671 339.684 77.2808 339.684 77.2808C344.811 77.0018 353.882 75.7802 359.278 68.6139L358.191 67.6231C358.191 67.6231 358.21 67.5847 358.23 67.5654L349.13 59.2833C348.899 58.937 348.784 58.5234 348.784 58.1098C348.784 57.6962 348.889 57.321 349.111 56.9651C349.822 55.8493 351.362 55.6377 352.343 56.5226Z" fill="#333336"/>
</svg>
