<svg width="22" height="20" viewBox="0 0 22 20" fill="none" xmlns="http://www.w3.org/2000/svg">
<path d="M17.6667 11.005H15.4444M17.6667 5.44943H8.77778M17.6667 14.3333H15.4444M9.00199 18.7778H17.4425C18.6881 18.7778 19.3109 18.7778 19.7843 18.5336C20.2028 18.3194 20.5416 17.9806 20.7559 17.562C21 17.0887 21 16.4659 21 15.2202V4.55755C21 3.31191 21 2.68909 20.7559 2.21574C20.5416 1.79721 20.2028 1.4584 19.7843 1.24415C19.3109 1 18.6881 1 17.4425 1H9.00199C7.75635 1 7.13353 1 6.66019 1.24415C6.24165 1.4584 5.90284 1.79721 5.68859 2.21574C5.44444 2.68909 5.44445 3.31191 5.44445 4.55755V15.2202C5.44445 16.4659 5.44444 17.0887 5.68859 17.562C5.90284 17.9806 6.24165 18.3194 6.66019 18.5336C7.13353 18.7778 7.75635 18.7778 9.00199 18.7778ZM12.1111 12.6692C12.1111 13.5909 11.3637 14.3333 10.4469 14.3333C9.53015 14.3333 8.78276 13.5859 8.78276 12.6692C8.78276 11.7524 9.53015 11.005 10.4469 11.005C11.3637 11.005 12.1111 11.7524 12.1111 12.6692ZM3.22222 18.7778C1.99651 18.7778 1 17.7813 1 16.5556V3.2272C1 2.00149 1.99651 1.00498 3.22222 1.00498C4.44793 1.00498 5.44445 2.00149 5.44445 3.2272V16.5556C5.44445 17.7813 4.44793 18.7778 3.22222 18.7778Z" stroke="#333336" stroke-width="1.4" stroke-linecap="round" stroke-linejoin="round"/>
</svg>
