<svg width="22" height="19" viewBox="0 0 22 19" fill="none" xmlns="http://www.w3.org/2000/svg">
<path d="M20.0991 1.0486C20.4865 1.0486 20.7086 1.29138 20.9617 1.83893V2.28317C20.6983 3.47124 20.4245 4.65931 20.1662 5.84738C19.4069 9.38577 18.6579 12.9293 17.8986 16.4677C17.8882 16.5245 17.8727 16.5814 17.8572 16.6382C17.7023 17.2632 17.3614 17.5938 16.9223 17.5938C16.6743 17.5938 16.3954 17.4905 16.101 17.2839C15.5018 16.8551 14.9129 16.4161 14.3137 15.977C13.4355 15.3313 12.5574 14.6908 11.6844 14.0502C10.5842 14.8251 9.88166 16.0493 8.52313 16.6692C8.58511 15.7394 8.63677 14.9594 8.68843 14.1846C8.72975 13.6267 8.81756 13.0688 8.80207 12.5109C8.79174 12.0718 8.98803 11.8084 9.28763 11.5398C11.8962 9.21014 14.4893 6.87532 17.0979 4.54567C17.227 4.43203 17.4078 4.37004 17.5318 4.25123C17.3614 4.10143 17.2219 4.04461 17.0979 4.04461C16.9378 4.04461 16.8086 4.13243 16.6795 4.20991C14.8767 5.33083 13.0791 6.46208 11.2815 7.58817C9.72153 8.56445 8.16154 9.55107 6.59122 10.5067C6.47241 10.579 6.30711 10.6203 6.15215 10.6203C6.07983 10.6203 6.01268 10.61 5.95069 10.5945C4.56633 10.1864 3.18713 9.76802 1.82343 9.30829C1.529 9.21014 1.29138 8.93121 1.02794 8.74008V8.65227C1.20873 8.2132 1.59615 8.02724 1.9939 7.87227C2.98051 7.48486 3.97229 7.1181 4.96408 6.73585C9.73186 4.90726 14.4997 3.07866 19.2674 1.25006C19.6135 1.11575 19.877 1.04344 20.0939 1.04344M20.0939 0.0103313C19.7582 0.0103313 19.4017 0.0929792 18.9007 0.284104L10.9096 3.34726L4.59732 5.7699C4.24607 5.9042 3.88965 6.03851 3.53839 6.17281C2.89786 6.41559 2.2625 6.65837 1.62198 6.90632C1.23973 7.05612 0.43907 7.37122 0.0774828 8.25969L0 8.44564V9.25663L0.418408 9.56657C0.480394 9.61306 0.542381 9.66471 0.599202 9.71637C0.82132 9.90749 1.10026 10.1503 1.49284 10.2846C2.69124 10.6875 4.01362 11.1007 5.66142 11.5863C5.81639 11.6328 5.98169 11.6534 6.15215 11.6534C6.50341 11.6534 6.85466 11.5605 7.12843 11.39C7.96525 10.8786 8.8124 10.3517 9.64405 9.83517C9.29796 10.1451 8.9467 10.4602 8.60061 10.7701C8.23386 11.0956 7.7483 11.6379 7.77413 12.5367C7.77929 12.8467 7.7483 13.1773 7.71214 13.5285C7.69148 13.7248 7.67082 13.9159 7.66048 14.1122C7.62433 14.6494 7.58817 15.1867 7.54684 15.7704L7.49002 16.5969L7.37638 18.3273L8.95187 17.6093C9.93848 17.1599 10.6203 16.4677 11.2195 15.8582C11.39 15.6826 11.5553 15.5173 11.7258 15.3571L11.8497 15.4501L13.7042 16.8086C13.8901 16.9429 14.0709 17.0773 14.2569 17.2167C14.6701 17.5215 15.0834 17.8263 15.5018 18.1259C15.9718 18.4616 16.4471 18.6269 16.9223 18.6269C17.6506 18.6269 18.5443 18.1672 18.8645 16.881C18.88 16.8138 18.8955 16.7467 18.911 16.6795L19.5722 13.5802C20.1043 11.0697 20.6415 8.56445 21.1787 6.054C21.3543 5.24301 21.5351 4.43203 21.7211 3.61587L21.9742 2.49495L22 2.38131V1.59615L21.907 1.38953C21.7314 1.00728 21.2665 0 20.1094 0L20.0939 0.0103313Z" fill="#333336"/>
</svg>
